{"title":"Star.Wars.The.Force.Reshaken.Xvid.Mp3.CSH","uid":14118025,"size":707044434,"categoryP":"video","categoryS":"movies","magnet":"?xt=urn:btih:3eb6dcbdb249ad8c5fcb9ce176602a372bbb8420&amp;dn=Star.Wars.The.Force.Reshaken.Xvid.Mp3.CSH&amp;tr=udp%3A%2F%2Ftracker.leechers-paradise.org%3A6969&amp;tr=udp%3A%2F%2Fzer0day.ch%3A1337&amp;tr=udp%3A%2F%2Fopen.demonii.com%3A1337&amp;tr=udp%3A%2F%2Ftracker.coppersurfer.tk%3A6969&amp;tr=udp%3A%2F%2Fexodus.desync.com%3A6969","seeders":0,"leechers":0,"uploader":"GM_CSH","files":1,"time":1459448516,"description":"Please enjoy Star Wars - The Force Reshaken (1979-2016)\r\n\r\nA must for die hard star wars fans, this special edition incorportates a new kick ass soundtrack, storyline changes, new character voices, and much much more.\r\n\r\nSource File - Encoded Avi / Xvid @ standard res (720x480) 24.9fps\r\nSource Audio - MP3 @ 128kbps 32,000khz\r\n\r\nThis star wars new edition was made with love for the original and credit to the original, but mine gives it an extra kick, a boost, more force one might say :)\r\n\r\nnote to other release groups please dl / rencode this in your chosen formats you usually release in at will. I will do a standard def encode, if you want to up it to a streaming site please do, share share share it was made to be viewed for free!\r\n\r\nin general remember, sharing is caring, seed and remain seeding always so everyone gets it in a timely fashion :)\r\n\r\ngreets to anyone who needs greeting and watch this space for the next installment of star wars the force reshaken\r\n\r\nPPP :)\r\n\r\n\r\nGeneral\r\nComplete name               : C:Users\\DocumentsStar Wars - The Force Reshaken.Xvid.Mp3.CSH.aviStar Wars - The Force Reshaken.Xvid.Mp3.CSH.avi\r\nFormat                      : AVI\r\nFormat/Info                 : Audio Video Interleave\r\nFile size                   : 674 MiB\r\nDuration                    : 2h 5mn\r\nOverall bit rate            : 753 Kbps\r\nTCOD                        : 0\r\nTCDO                        : 75147989583\r\n\r\nVideo\r\nID                          : 0\r\nFormat                      : MPEG-4 Visual\r\nFormat profile              : Advanced   \r\nFormat settings, BVOP       : 2\r\nFormat settings, QPel       : No\r\nFormat settings, GMC        : No warppoints\r\nFormat settings, Matrix     : Default (H.263)\r\nMuxing mode                 : Packed bitstream\r\nCodec ID                    : XVID\r\nCodec ID/Hint               : XviD\r\nDuration                    : 2h 5mn\r\nBit rate                    : 550 Kbps\r\nWidth                       : 720 pixels\r\nHeight                      : 480 pixels\r\nDisplay aspect ratio        : 3:2\r\nFrame rate                  : 23.976 (24000/1001) fps\r\nColor space                 : YUV\r\nChroma subsampling          : 4:2:0\r\nBit depth                   : 8 bits\r\nScan type                   : Progressive\r\nCompression mode            : Lossy\r\nBits/(Pixel*Frame)          : 0.066\r\nStream size                 : 493 MiB (73%)\r\nWriting library             : XviD 73\r\n\r\nAudio\r\nID                          : 1\r\nFormat                      : MPEG Audio\r\nFormat version              : Version 1\r\nFormat profile              : Layer 3\r\nMode                        : Joint stereo\r\nMode extension              : MS Stereo\r\nCodec ID                    : 55\r\nCodec ID/Hint               : MP3\r\nDuration                    : 2h 5mn\r\nBit rate mode               : Constant\r\nBit rate                    : 128 Kbps\r\nChannel(s)                  : 2 channels\r\nSampling rate               : 32.0 KHz\r\nCompression mode            : Lossy\r\nStream size                 : 115 MiB (17%)\r\nAlignment                   : Aligned on interleaves\r\nInterleave, duration        : 250 ms (5.99 video frames)\r\nInterleave, preload duratio : 216 ms","torrent":{"xt":"urn:btih:3eb6dcbdb249ad8c5fcb9ce176602a372bbb8420","amp;dn":"Star.Wars.The.Force.Reshaken.Xvid.Mp3.CSH","amp;tr":["udp%3A%2F%2Ftracker.leechers-paradise.org%3A6969","udp%3A%2F%2Fzer0day.ch%3A1337","udp%3A%2F%2Fopen.demonii.com%3A1337","udp%3A%2F%2Ftracker.coppersurfer.tk%3A6969","udp%3A%2F%2Fexodus.desync.com%3A6969"],"infoHash":"3eb6dcbdb249ad8c5fcb9ce176602a372bbb8420","infoHashBuffer":{"type":"Buffer","data":[62,182,220,189,178,73,173,140,95,203,156,225,118,96,42,55,43,187,132,32]},"announce":[],"urlList":[]}}